<svg xmlns="http://www.w3.org/2000/svg" xmlns:xlink="http://www.w3.org/1999/xlink" id="Camada_2" data-name="Camada 2" viewBox="0 0 512 509.82"><defs><style>      .cls-1, .cls-2, .cls-3, .cls-4 {        fill: #04589e;      }      .cls-1, .cls-4 {        stroke-width: 0px;      }      .cls-2 {        fill-rule: evenodd;      }      .cls-5 {        clip-path: url(#clippath-2);      }      .cls-6 {        clip-path: url(#clippath-1);      }      .cls-4 {        clip-rule: evenodd;      }    </style><clipPath id="clippath-1"><path class="cls-4" d="M193.42,0c4.86,0,8.83,4.15,8.83,9.23v51.3c0,5.07-3.97,9.23-8.83,9.23s-8.83-4.15-8.83-9.23V9.23c0-5.07,3.97-9.23,8.83-9.23M113.25,325.76c3.92,3,4.78,8.8,1.9,12.89l-29.03,41.38c-2.87,4.09-8.43,4.99-12.34,1.99-3.92-3-4.77-8.8-1.9-12.89l29.03-41.38c2.87-4.09,8.43-4.99,12.34-1.99ZM64.08,254.16c1.46,4.84-1.13,10.05-5.76,11.58l-46.83,15.46c-4.63,1.53-9.62-1.18-11.08-6.02-1.46-4.84,1.13-10.05,5.76-11.58l46.83-15.46c4.63-1.53,9.62,1.18,11.08,6.02ZM64.93,166.05c-1.56,4.81-6.59,7.41-11.2,5.78l-46.52-16.44c-4.6-1.63-7.09-6.89-5.54-11.7,1.56-4.81,6.6-7.41,11.2-5.78l46.52,16.44c4.6,1.63,7.09,6.89,5.54,11.7ZM115.47,95.49c-3.98,2.92-9.51,1.9-12.3-2.25l-28.22-41.98c-2.79-4.15-1.82-9.94,2.15-12.85,3.98-2.92,9.51-1.9,12.3,2.25l28.22,41.98c2.79,4.15,1.82,9.94-2.15,12.85ZM268.26,457.73v1.64c0,9.01-7.51,16.38-16.69,16.38h-78.04c-9.18,0-16.69-7.37-16.69-16.38v-1.64h111.43ZM268.26,432.08v13.68h-111.43v-13.68h111.43ZM179.26,485.37h66.56v14.06c0,5.71-4.76,10.38-10.58,10.38h-45.39c-5.82,0-10.58-4.67-10.58-10.38v-14.06ZM192.35,86.27c23.87,0,49.36,7.48,69.06,21.76l-13.6,30.11c-65.39-40.81-140.34-1.86-140.34,74.63,0,84.39,73.97,56.53,78.67,170.39.21,5.16-.37,15.86-.12,24.03h82.23v12.91h-111.43v-12.91c0-126.28-79.1-84.08-85.58-194.43-4.09-69.74,54.22-126.5,121.1-126.5Z"></path></clipPath><clipPath id="clippath-2"><rect class="cls-1" x="-1.05" width="269.31" height="509.82"></rect></clipPath></defs><g id="Horizontal"><g><g id="nury"><path class="cls-1" d="M432.12,342.81h22.3l18.12,22.32,17.37-22.32h22.09l-30.45,35.98v19.68h-17.52v-19.68l-31.91-35.98ZM379.95,370.43h23.87c4.13-.08,6.61-.15,7.4-.22.79-.07,1.47-.28,2.04-.64.74-.46,1.25-1.14,1.54-2.04.29-.92.44-2.29.44-4.14s-.17-3.17-.5-4.08c-.35-.89-.93-1.54-1.77-1.95-.6-.28-1.31-.43-2.13-.49-.82-.06-3.18-.1-7.08-.13h-23.83v13.69ZM363.01,398.47v-55.66h40.97c9.61.03,15.36.13,17.26.31,1.89.18,3.73.81,5.49,1.89,2.11,1.28,3.57,3.05,4.35,5.29.79,2.25,1.18,5.79,1.18,10.6,0,4.05-.25,7.04-.75,8.94-.5,1.91-1.45,3.42-2.82,4.56-1.49,1.22-3.73,2.07-6.73,2.53,3.55.28,6.11,1.29,7.65,3.06.89,1.06,1.46,2.34,1.71,3.85.24,1.5.36,4.66.36,9.47v5.16h-16.69v-2.96c0-3.09-.11-5.3-.35-6.61-.24-1.32-.65-2.32-1.28-3.03-.63-.65-1.49-1.06-2.6-1.24-1.1-.18-3.41-.26-6.91-.26h-23.91v14.1h-16.94ZM283.13,342.81h16.94v25.59c.08,5.88.29,9.6.61,11.15.43,2.18,1.85,3.62,4.23,4.3,2.38.68,7.19,1.02,14.44,1.02,5.88,0,9.96-.17,12.23-.51,2.28-.33,3.89-1.02,4.84-2.02.63-.71,1.07-1.57,1.34-2.57.25-1.02.46-2.74.58-5.19.14-2.52.21-4.58.21-6.18v-25.59h16.94v25.59c-.19,8.89-.47,14.7-.86,17.46-.67,4.67-2.91,8.09-6.69,10.26-2.14,1.25-5.17,2.1-9.08,2.53-3.92.43-10.35.65-19.29.65-6.72,0-11.91-.12-15.55-.36-3.64-.25-6.8-.68-9.5-1.31-5.95-1.42-9.43-5.01-10.45-10.77-.38-2.2-.61-4.2-.71-5.99-.1-1.79-.17-5.95-.22-12.48v-25.59ZM198.26,342.81h29.71l29.15,41.56h1.75l-.42-41.56h17.25v55.66h-29.47l-29.26-41.56h-1.84l.38,41.56h-17.25v-55.66Z"></path></g><g id="N-placas"><path class="cls-2" d="M244.28,171.72h27.55l-23.52,49.15h-27.55l23.52-49.15ZM219.33,223.85h27.55l-23.52,49.15h-27.55l23.52-49.15ZM194.39,275.98h27.55l-23.52,49.15h-27.55l23.52-49.15ZM300.3,119.59h27.55l-23.52,49.15h-27.55l23.52-49.15ZM275.36,171.72h27.55l-23.52,49.15h-27.55l23.52-49.15ZM250.42,223.85h27.55l-23.52,49.15h-27.55l23.52-49.15ZM225.47,275.98h27.55l-23.52,49.15h-27.55l23.52-49.15ZM306.79,171.72h27.55l-23.52,49.15h-27.55l23.52-49.15ZM344.37,223.85h27.55l-23.52,49.15h-27.55l23.52-49.15ZM425.34,119.59h27.55l-23.52,49.15h-27.55l23.52-49.15ZM337.88,171.72h12.15l7.2,17.13-15.32,32.02h-27.55l23.52-49.15ZM400.4,171.72h27.55l-23.52,49.15h-27.55l23.52-49.15ZM312.93,223.85h27.55l-23.52,49.15h-12.04l-7.37-17.03,15.37-32.13ZM375.45,223.85h27.55l-23.52,49.15h-27.55l23.52-49.15ZM350.51,275.98h27.55l-23.52,49.15h-27.55l23.52-49.15ZM456.81,119.59h27.55l-23.52,49.15h-27.55l23.52-49.15ZM431.87,171.72h27.55l-23.52,49.15h-27.55l23.52-49.15ZM406.93,223.85h27.55l-23.52,49.15h-27.55l23.52-49.15ZM381.98,275.98h27.55l-23.52,49.15h-27.55l23.52-49.15ZM284.18,223.85h25.22l-13.3,27.79-11.92-27.79ZM319.42,275.98h27.56l-21.65,45.23-12.92-30.58,7.01-14.66ZM345.8,220.87l13.21-27.6,11.66,27.6h-24.87ZM329.68,123.9l12.92,30.58-6.83,14.26h-27.56l21.46-44.84ZM306.22,275.98h9.33l-4.95,10.35-4.37-10.35ZM339.3,168.74h9.33l-4.38-10.35-4.95,10.35ZM269.22,119.59h27.55l-23.52,49.15h-27.55l23.52-49.15Z"></path></g><g id="lampada"><path class="cls-2" d="M193.42,0c4.86,0,8.83,4.15,8.83,9.23v51.3c0,5.07-3.97,9.23-8.83,9.23s-8.83-4.15-8.83-9.23V9.23c0-5.07,3.97-9.23,8.83-9.23M113.25,325.76c3.92,3,4.78,8.8,1.9,12.89l-29.03,41.38c-2.87,4.09-8.43,4.99-12.34,1.99-3.92-3-4.77-8.8-1.9-12.89l29.03-41.38c2.87-4.09,8.43-4.99,12.34-1.99ZM64.08,254.16c1.46,4.84-1.13,10.05-5.76,11.58l-46.83,15.46c-4.63,1.53-9.62-1.18-11.08-6.02-1.46-4.84,1.13-10.05,5.76-11.58l46.83-15.46c4.63-1.53,9.62,1.18,11.08,6.02ZM64.93,166.05c-1.56,4.81-6.59,7.41-11.2,5.78l-46.52-16.44c-4.6-1.63-7.09-6.89-5.54-11.7,1.56-4.81,6.6-7.41,11.2-5.78l46.52,16.44c4.6,1.63,7.09,6.89,5.54,11.7ZM115.47,95.49c-3.98,2.92-9.51,1.9-12.3-2.25l-28.22-41.98c-2.79-4.15-1.82-9.94,2.15-12.85,3.98-2.92,9.51-1.9,12.3,2.25l28.22,41.98c2.79,4.15,1.82,9.94-2.15,12.85ZM268.26,457.73v1.64c0,9.01-7.51,16.38-16.69,16.38h-78.04c-9.18,0-16.69-7.37-16.69-16.38v-1.64h111.43ZM268.26,432.08v13.68h-111.43v-13.68h111.43ZM179.26,485.37h66.56v14.06c0,5.71-4.76,10.38-10.58,10.38h-45.39c-5.82,0-10.58-4.67-10.58-10.38v-14.06ZM192.35,86.27c23.87,0,49.36,7.48,69.06,21.76l-13.6,30.11c-65.39-40.81-140.34-1.86-140.34,74.63,0,84.39,73.97,56.53,78.67,170.39.21,5.16-.37,15.86-.12,24.03h82.23v12.91h-111.43v-12.91c0-126.28-79.1-84.08-85.58-194.43-4.09-69.74,54.22-126.5,121.1-126.5Z"></path><g class="cls-6"><g><rect class="cls-3" x="-1.05" width="269.31" height="509.82"></rect><g class="cls-5"><polygon class="cls-1" points="268.26 179.04 -1.05 242.23 -1.05 0 268.26 0 268.26 179.04"></polygon><polygon class="cls-1" points="268.26 184.14 -1.05 247.33 -1.05 242.23 268.26 179.04 268.26 184.14"></polygon><polygon class="cls-1" points="268.26 189.24 -1.05 252.42 -1.05 247.33 268.26 184.14 268.26 189.24"></polygon><polygon class="cls-1" points="268.26 194.34 -1.05 257.52 -1.05 252.42 268.26 189.24 268.26 194.34"></polygon><polygon class="cls-1" points="268.26 199.44 -1.05 262.62 -1.05 257.52 268.26 194.34 268.26 199.44"></polygon><polygon class="cls-1" points="268.26 204.54 -1.05 267.72 -1.05 262.62 268.26 199.44 268.26 204.54"></polygon><polygon class="cls-1" points="268.26 209.64 -1.05 272.82 -1.05 267.72 268.26 204.54 268.26 209.64"></polygon><polygon class="cls-1" points="268.26 214.74 -1.05 277.92 -1.05 272.82 268.26 209.64 268.26 214.74"></polygon><polygon class="cls-1" points="268.26 219.84 -1.05 283.02 -1.05 277.92 268.26 214.74 268.26 219.84"></polygon><polygon class="cls-1" points="268.26 224.94 -1.05 288.12 -1.05 283.02 268.26 219.84 268.26 224.94"></polygon><polygon class="cls-1" points="268.26 230.03 -1.05 293.22 -1.05 288.12 268.26 224.94 268.26 230.03"></polygon><polygon class="cls-1" points="268.26 235.13 -1.05 298.32 -1.05 293.22 268.26 230.03 268.26 235.13"></polygon><polygon class="cls-1" points="268.26 240.23 -1.05 303.42 -1.05 298.32 268.26 235.13 268.26 240.23"></polygon><polygon class="cls-1" points="268.26 245.33 -1.05 308.52 -1.05 303.42 268.26 240.23 268.26 245.33"></polygon><polygon class="cls-1" points="268.26 250.43 -1.05 313.62 -1.05 308.52 268.26 245.33 268.26 250.43"></polygon><polygon class="cls-1" points="268.26 255.53 -1.05 318.71 -1.05 313.62 268.26 250.43 268.26 255.53"></polygon><polygon class="cls-1" points="268.26 260.63 -1.05 323.81 -1.05 318.71 268.26 255.53 268.26 260.63"></polygon><polygon class="cls-1" points="268.26 265.73 -1.05 328.91 -1.05 323.81 268.26 260.63 268.26 265.73"></polygon><polygon class="cls-1" points="268.26 270.83 -1.05 334.01 -1.05 328.91 268.26 265.73 268.26 270.83"></polygon><polygon class="cls-1" points="268.26 275.93 -1.05 339.11 -1.05 334.01 268.26 270.83 268.26 275.93"></polygon><polygon class="cls-1" points="268.26 281.03 -1.05 344.21 -1.05 339.11 268.26 275.93 268.26 281.03"></polygon><polygon class="cls-1" points="268.26 286.13 -1.05 349.31 -1.05 344.21 268.26 281.03 268.26 286.13"></polygon><polygon class="cls-1" points="268.26 291.23 -1.05 354.41 -1.05 349.31 268.26 286.13 268.26 291.23"></polygon><polygon class="cls-1" points="268.26 296.32 -1.05 359.51 -1.05 354.41 268.26 291.23 268.26 296.32"></polygon><polygon class="cls-1" points="268.26 301.42 -1.05 364.61 -1.05 359.51 268.26 296.32 268.26 301.42"></polygon><polygon class="cls-1" points="268.26 306.52 -1.05 369.71 -1.05 364.61 268.26 301.42 268.26 306.52"></polygon><polygon class="cls-1" points="268.26 311.62 -1.05 374.81 -1.05 369.71 268.26 306.52 268.26 311.62"></polygon><polygon class="cls-1" points="268.26 316.72 -1.05 379.9 -1.05 374.81 268.26 311.62 268.26 316.72"></polygon><polygon class="cls-1" points="268.26 321.82 -1.05 385 -1.05 379.9 268.26 316.72 268.26 321.82"></polygon><polygon class="cls-1" points="268.26 326.92 -1.05 390.1 -1.05 385 268.26 321.82 268.26 326.92"></polygon><polygon class="cls-1" points="268.26 332.02 -1.05 395.2 -1.05 390.1 268.26 326.92 268.26 332.02"></polygon><polygon class="cls-1" points="268.26 337.12 -1.05 400.3 -1.05 395.2 268.26 332.02 268.26 337.12"></polygon><polygon class="cls-1" points="268.26 342.22 -1.05 405.4 -1.05 400.3 268.26 337.12 268.26 342.22"></polygon><polygon class="cls-1" points="268.26 347.32 -1.05 410.5 -1.05 405.4 268.26 342.22 268.26 347.32"></polygon><polygon class="cls-1" points="268.26 352.42 -1.05 415.6 -1.05 410.5 268.26 347.32 268.26 352.42"></polygon><polygon class="cls-1" points="268.26 357.51 -1.05 420.7 -1.05 415.6 268.26 352.42 268.26 357.51"></polygon><polygon class="cls-1" points="268.26 362.61 -1.05 425.8 -1.05 420.7 268.26 357.51 268.26 362.61"></polygon><polygon class="cls-1" points="268.26 367.71 -1.05 430.9 -1.05 425.8 268.26 362.61 268.26 367.71"></polygon><polygon class="cls-1" points="268.26 372.81 -1.05 436 -1.05 430.9 268.26 367.71 268.26 372.81"></polygon><polygon class="cls-1" points="268.26 377.91 -1.05 441.1 -1.05 436 268.26 372.81 268.26 377.91"></polygon><polygon class="cls-1" points="268.26 383.01 -1.05 446.19 -1.05 441.1 268.26 377.91 268.26 383.01"></polygon><polygon class="cls-1" points="268.26 388.11 -1.05 451.29 -1.05 446.19 268.26 383.01 268.26 388.11"></polygon><polygon class="cls-1" points="268.26 393.21 -1.05 456.39 -1.05 451.29 268.26 388.11 268.26 393.21"></polygon><polygon class="cls-1" points="268.26 398.31 -1.05 461.49 -1.05 456.39 268.26 393.21 268.26 398.31"></polygon><polygon class="cls-1" points="268.26 403.41 -1.05 466.59 -1.05 461.49 268.26 398.31 268.26 403.41"></polygon><polygon class="cls-1" points="268.26 408.51 -1.05 471.69 -1.05 466.59 268.26 403.41 268.26 408.51"></polygon><polygon class="cls-1" points="268.26 413.61 -1.05 476.79 -1.05 471.69 268.26 408.51 268.26 413.61"></polygon><polygon class="cls-1" points="268.26 418.71 -1.05 481.89 -1.05 476.79 268.26 413.61 268.26 418.71"></polygon><polygon class="cls-1" points="268.26 423.8 -1.05 486.99 -1.05 481.89 268.26 418.71 268.26 423.8"></polygon><polygon class="cls-1" points="268.26 428.9 -1.05 492.09 -1.05 486.99 268.26 423.8 268.26 428.9"></polygon><polygon class="cls-1" points="268.26 434 -1.05 497.19 -1.05 492.09 268.26 428.9 268.26 434"></polygon><polygon class="cls-1" points="268.26 439.1 -1.05 502.29 -1.05 497.19 268.26 434 268.26 439.1"></polygon><polygon class="cls-1" points="268.26 444.2 -1.05 507.38 -1.05 502.29 268.26 439.1 268.26 444.2"></polygon><polygon class="cls-1" points="268.26 449.3 10.3 509.82 -1.05 509.82 -1.05 507.38 268.26 444.2 268.26 449.3"></polygon><polygon class="cls-1" points="268.26 454.4 32.04 509.82 10.3 509.82 268.26 449.3 268.26 454.4"></polygon><polygon class="cls-1" points="268.26 459.5 53.77 509.82 32.04 509.82 268.26 454.4 268.26 459.5"></polygon><polygon class="cls-1" points="268.26 464.6 75.51 509.82 53.77 509.82 268.26 459.5 268.26 464.6"></polygon><polygon class="cls-1" points="268.26 469.7 97.24 509.82 75.51 509.82 268.26 464.6 268.26 469.7"></polygon><polygon class="cls-1" points="268.26 474.8 118.98 509.82 97.24 509.82 268.26 469.7 268.26 474.8"></polygon><polygon class="cls-1" points="268.26 479.9 140.71 509.82 118.98 509.82 268.26 474.8 268.26 479.9"></polygon><polygon class="cls-1" points="268.26 485 162.45 509.82 140.71 509.82 268.26 479.9 268.26 485"></polygon><polygon class="cls-1" points="268.26 490.09 184.18 509.82 162.45 509.82 268.26 485 268.26 490.09"></polygon><polygon class="cls-1" points="268.26 495.19 205.92 509.82 184.18 509.82 268.26 490.09 268.26 495.19"></polygon><polygon class="cls-1" points="268.26 500.29 227.65 509.82 205.92 509.82 268.26 495.19 268.26 500.29"></polygon><polygon class="cls-1" points="268.26 505.39 249.39 509.82 227.65 509.82 268.26 500.29 268.26 505.39"></polygon><polygon class="cls-1" points="249.39 509.82 268.26 505.39 268.26 509.82 249.39 509.82"></polygon></g></g></g></g><g><path class="cls-1" d="M316.1,437.38c-.18,6.5-3.98,8.73-15,8.73-9.38,0-13.54-.64-15.94-2.52-2.58-1.99-3.87-5.74-3.87-11.31,0-6.62,1.58-10.43,5.1-12.36,2.23-1.23,5.33-1.64,11.89-1.64,9.38,0,12.6.76,15.12,3.57,2.05,2.4,2.64,4.86,2.75,11.31h-30.23c.12,3.52.7,5.62,1.99,6.97,1.64,1.7,4.57,2.23,12.71,2.23,6.15,0,8.55-.47,9.96-2.05.7-.7.82-1.17,1-2.93h4.51ZM311.42,429.47c-.06-5.98-2.7-7.44-13.24-7.44-9.38,0-11.66,1.41-12.13,7.44h25.37Z"></path><path class="cls-1" d="M324.31,418.63v4.1h.35c1.76-3.52,4.75-4.45,13.65-4.45,7.79,0,11.02.7,13.12,2.99,1.64,1.82,2.23,4.1,2.23,9.2v15.29h-4.28v-13.48c0-4.86-.29-6.5-1.52-7.91-1.41-1.7-4.1-2.34-10.02-2.34-6.68,0-10.08.88-11.95,3.16-1.35,1.58-1.58,2.87-1.58,8.03v12.54h-4.28v-27.13h4.28Z"></path><path class="cls-1" d="M392.4,437.38c-.18,6.5-3.98,8.73-15,8.73-9.38,0-13.54-.64-15.94-2.52-2.58-1.99-3.87-5.74-3.87-11.31,0-6.62,1.58-10.43,5.1-12.36,2.23-1.23,5.33-1.64,11.89-1.64,9.38,0,12.6.76,15.12,3.57,2.05,2.4,2.64,4.86,2.75,11.31h-30.23c.12,3.52.7,5.62,1.99,6.97,1.64,1.7,4.57,2.23,12.71,2.23,6.15,0,8.55-.47,9.96-2.05.7-.7.82-1.17,1-2.93h4.51ZM387.71,429.47c-.06-5.98-2.7-7.44-13.24-7.44-9.38,0-11.66,1.41-12.13,7.44h25.37Z"></path><path class="cls-1" d="M400.6,418.63v3.63h.29c.7-1.29,1.76-2.23,3.22-2.93,1.64-.82,3.93-1.05,9.08-1.05s7.5.47,9.32,2.05,2.75,4.16,2.75,7.68v2.81h-4.39v-1.93c0-5.62-1.46-6.86-8.14-6.86-10.31,0-12.13,1.64-12.13,11.19v12.54h-4.28v-27.13h4.28Z"></path><path class="cls-1" d="M463.36,418.63v20.33c0,8.32-.59,11.31-2.64,13.59-2.46,2.7-5.57,3.34-15.7,3.34-9.08,0-12.83-1-15-3.93-1-1.35-1.29-2.34-1.29-4.86h4.45c.35,3.98,2.64,5.04,11.37,5.04,8.2,0,11.31-.59,12.77-2.46,1.23-1.52,1.46-2.87,1.7-8.44h-.29c-2.34,2.93-4.51,3.52-13.24,3.52-7.62,0-11.19-.64-13.36-2.29-2.81-2.17-4.1-5.57-4.1-11.02,0-6.33,1.88-10.08,5.86-11.84,2.34-1,5.51-1.35,12.48-1.35,6.04,0,8.03.29,9.9,1.35,1.23.7,1.82,1.35,2.58,2.46h.23l-.06-3.46h4.34ZM435.59,423.49c-1.99,1.11-2.99,3.81-2.99,8.09,0,4.75,1.17,7.32,3.75,8.5,1.46.64,4.51.94,9.43.94,6.04,0,8.85-.41,10.49-1.52,1.99-1.41,2.75-3.75,2.75-8.38,0-7.5-2.23-9.08-12.66-9.08-5.92,0-9.02.41-10.78,1.46Z"></path><path class="cls-1" d="M472.5,406.68v5.1h-4.28v-5.1h4.28ZM472.5,418.63v27.13h-4.28v-27.13h4.28Z"></path><path class="cls-1" d="M477.66,426.77v-1.17c0-5.68,3.46-7.32,15.23-7.32,9.2,0,12.36.64,14.65,3.05,1.88,1.88,2.29,3.69,2.29,10.14v14.3h-4.28l.06-3.16h-.18c-2.05,2.93-4.04,3.52-12.3,3.52-9.73,0-12.3-.35-14.3-1.88-1.76-1.41-2.34-3.05-2.34-6.33,0-4.28,1.05-6.39,3.87-7.44,1.64-.64,4.22-.88,9.96-.88,11.13,0,13.01.35,14.88,2.93h.35v-2.93c0-2.81-.29-3.98-1.29-5.16-1.52-1.88-3.98-2.4-11.07-2.4-9.32,0-10.96.64-11.02,4.39v.35h-4.51ZM482.64,434.33c-1.05.7-1.58,1.88-1.58,3.63,0,1.99.59,3.05,2.11,3.69,1.23.53,4.16.7,10.84.7,9.08,0,11.25-.88,11.25-4.51s-2.58-4.45-12.13-4.45c-7.21,0-9.26.18-10.49.94Z"></path></g></g></g></svg>