<svg xmlns="http://www.w3.org/2000/svg" xmlns:xlink="http://www.w3.org/1999/xlink" id="Camada_2" data-name="Camada 2" viewBox="0 0 350 119.12"><defs><style>      .cls-1, .cls-2, .cls-3 {        fill: #04589e;      }      .cls-1, .cls-3 {        stroke-width: 0px;      }      .cls-2 {        fill-rule: evenodd;      }      .cls-4 {        clip-path: url(#clippath-1);      }      .cls-3 {        clip-rule: evenodd;      }    </style><clipPath id="clippath-1"><path class="cls-3" d="M45.19,0c1.14,0,2.06.97,2.06,2.16v11.99c0,1.19-.93,2.16-2.06,2.16s-2.06-.97-2.06-2.16V2.16c0-1.19.93-2.16,2.06-2.16M26.46,76.11c.92.7,1.12,2.06.45,3.01l-6.78,9.67c-.67.96-1.97,1.17-2.88.46-.92-.7-1.12-2.06-.45-3.01l6.78-9.67c.67-.96,1.97-1.17,2.88-.46ZM14.97,59.38c.34,1.13-.26,2.35-1.35,2.7l-10.94,3.61c-1.08.36-2.25-.28-2.59-1.41-.34-1.13.26-2.35,1.35-2.71l10.94-3.61c1.08-.36,2.25.28,2.59,1.41ZM15.17,38.8c-.36,1.12-1.54,1.73-2.62,1.35l-10.87-3.84c-1.08-.38-1.66-1.61-1.29-2.73.36-1.12,1.54-1.73,2.62-1.35l10.87,3.84c1.08.38,1.66,1.61,1.29,2.73ZM26.98,22.31c-.93.68-2.22.44-2.87-.53l-6.59-9.81c-.65-.97-.43-2.32.5-3,.93-.68,2.22-.44,2.87.53l6.59,9.81c.65.97.43,2.32-.5,3ZM62.68,106.95v.38c0,2.11-1.76,3.83-3.9,3.83h-18.23c-2.15,0-3.9-1.72-3.9-3.83v-.38h26.03ZM62.68,100.95v3.2h-26.03v-3.2h26.03ZM41.88,113.41h15.55v3.29c0,1.33-1.11,2.43-2.47,2.43h-10.61c-1.36,0-2.47-1.09-2.47-2.43v-3.29ZM44.94,20.16c5.58,0,11.53,1.75,16.14,5.09l-3.18,7.04c-15.28-9.54-32.79-.43-32.79,17.44,0,19.72,17.28,13.21,18.38,39.81.05,1.21-.09,3.71-.03,5.62h19.21v3.02h-26.03v-3.02c0-29.5-18.48-19.65-20-45.43-.96-16.3,12.67-29.56,28.29-29.56Z"></path></clipPath></defs><g id="Horizontal"><g><path id="nury" class="cls-1" d="M295.52,28.23h15.21l12.36,15.23,11.85-15.23h15.06l-20.77,24.54v13.42h-11.95v-13.42l-21.76-24.54ZM259.93,47.07h16.28c2.82-.06,4.51-.1,5.05-.15.54-.05,1.01-.19,1.39-.44.5-.31.85-.78,1.05-1.39.2-.63.3-1.57.3-2.83s-.11-2.16-.34-2.78c-.24-.61-.64-1.05-1.2-1.33-.41-.19-.89-.29-1.45-.33-.56-.04-2.17-.07-4.83-.09h-16.25v9.33ZM248.38,66.19V28.23h27.95c6.56.02,10.47.09,11.77.21,1.29.12,2.54.55,3.75,1.29,1.44.87,2.44,2.08,2.97,3.61.54,1.54.81,3.95.81,7.23,0,2.76-.17,4.8-.51,6.1-.34,1.3-.99,2.33-1.93,3.11-1.02.84-2.54,1.41-4.59,1.73,2.42.19,4.16.88,5.22,2.09.61.72,1,1.59,1.17,2.63.16,1.02.25,3.18.25,6.46v3.52h-11.38v-2.02c0-2.11-.08-3.61-.24-4.51-.16-.9-.45-1.58-.87-2.07-.43-.45-1.02-.72-1.77-.84-.75-.12-2.32-.18-4.71-.18h-16.31v9.62h-11.55ZM193.9,28.23h11.55v17.46c.06,4.01.2,6.55.42,7.61.29,1.49,1.26,2.47,2.88,2.93,1.62.46,4.9.69,9.85.69,4.01,0,6.79-.11,8.34-.35,1.56-.23,2.66-.69,3.3-1.38.43-.48.73-1.07.91-1.76.17-.69.31-1.87.4-3.54.09-1.72.14-3.12.14-4.21v-17.46h11.55v17.46c-.13,6.06-.32,10.03-.59,11.91-.46,3.19-1.98,5.52-4.56,7-1.46.85-3.53,1.43-6.19,1.73-2.68.29-7.06.45-13.16.45-4.58,0-8.12-.09-10.61-.25-2.49-.17-4.64-.46-6.48-.89-4.06-.97-6.43-3.42-7.12-7.34-.26-1.5-.42-2.86-.48-4.09-.07-1.22-.11-4.06-.15-8.51v-17.46ZM136.01,28.23h20.26l19.88,28.35h1.2l-.28-28.35h11.76v37.97h-20.1l-19.96-28.35h-1.25l.26,28.35h-11.76V28.23Z"></path><g id="n-placas"><path class="cls-2" d="M56.08,44.4h8.55l-7.3,15.25h-8.55l7.3-15.25ZM48.34,60.57h8.55l-7.3,15.25h-8.55l7.3-15.25ZM41.03,76.74h8.13l-5.71,11.92c-.28-5.07-1.17-8.9-2.42-11.92ZM73.46,28.22h8.55l-7.3,15.25h-8.55l7.3-15.25ZM65.72,44.4h8.55l-7.3,15.25h-8.55l7.3-15.25ZM57.99,60.57h8.55l-7.3,15.25h-8.55l7.3-15.25ZM50.25,76.74h8.55l-7.3,15.25h-8.02c0-.4.02-.79.02-1.14l6.75-14.11ZM75.48,44.4h8.55l-7.3,15.25h-8.55l7.3-15.25ZM87.13,60.57h8.55l-7.3,15.25h-8.55l7.3-15.25ZM112.25,28.22h8.55l-7.3,15.25h-8.55l7.3-15.25ZM85.12,44.4h3.77l2.23,5.31-4.75,9.93h-8.55l7.3-15.25ZM104.51,44.4h8.55l-7.3,15.25h-8.55l7.3-15.25ZM77.38,60.57h8.55l-7.3,15.25h-3.74l-2.28-5.28,4.77-9.97ZM96.78,60.57h8.55l-7.3,15.25h-8.55l7.3-15.25ZM89.04,76.74h8.55l-7.3,15.25h-8.55l7.3-15.25ZM122.02,28.22h8.55l-7.3,15.25h-8.55l7.3-15.25ZM114.28,44.4h8.55l-7.3,15.25h-8.55l7.3-15.25ZM106.54,60.57h8.55l-7.3,15.25h-8.55l7.3-15.25ZM98.8,76.74h8.55l-7.3,15.25h-8.55l7.3-15.25ZM68.46,60.57h7.82l-4.13,8.62-3.7-8.62ZM79.39,76.74h8.55l-6.71,14.03-4.01-9.49,2.18-4.55ZM87.58,59.65l4.1-8.56,3.62,8.56h-7.72ZM82.58,29.56l4.01,9.49-2.12,4.43h-8.55l6.66-13.91ZM75.3,76.74h2.89l-1.54,3.21-1.36-3.21ZM85.56,43.47h2.89l-1.36-3.21-1.54,3.21ZM63.82,28.22h8.55l-7.3,15.25h-8.55l7.3-15.25Z"></path></g><g id="lampada"><path class="cls-2" d="M45.19,0c1.14,0,2.06.97,2.06,2.16v11.99c0,1.19-.93,2.16-2.06,2.16s-2.06-.97-2.06-2.16V2.16c0-1.19.93-2.16,2.06-2.16M26.46,76.11c.92.7,1.12,2.06.45,3.01l-6.78,9.67c-.67.96-1.97,1.17-2.88.46-.92-.7-1.12-2.06-.45-3.01l6.78-9.67c.67-.96,1.97-1.17,2.88-.46ZM14.97,59.38c.34,1.13-.26,2.35-1.35,2.7l-10.94,3.61c-1.08.36-2.25-.28-2.59-1.41-.34-1.13.26-2.35,1.35-2.71l10.94-3.61c1.08-.36,2.25.28,2.59,1.41ZM15.17,38.8c-.36,1.12-1.54,1.73-2.62,1.35l-10.87-3.84c-1.08-.38-1.66-1.61-1.29-2.73.36-1.12,1.54-1.73,2.62-1.35l10.87,3.84c1.08.38,1.66,1.61,1.29,2.73ZM26.98,22.31c-.93.68-2.22.44-2.87-.53l-6.59-9.81c-.65-.97-.43-2.32.5-3,.93-.68,2.22-.44,2.87.53l6.59,9.81c.65.97.43,2.32-.5,3ZM62.68,106.95v.38c0,2.11-1.76,3.83-3.9,3.83h-18.23c-2.15,0-3.9-1.72-3.9-3.83v-.38h26.03ZM62.68,100.95v3.2h-26.03v-3.2h26.03ZM41.88,113.41h15.55v3.29c0,1.33-1.11,2.43-2.47,2.43h-10.61c-1.36,0-2.47-1.09-2.47-2.43v-3.29ZM44.94,20.16c5.58,0,11.53,1.75,16.14,5.09l-3.18,7.04c-15.28-9.54-32.79-.43-32.79,17.44,0,19.72,17.28,13.21,18.38,39.81.05,1.21-.09,3.71-.03,5.62h19.21v3.02h-26.03v-3.02c0-29.5-18.48-19.65-20-45.43-.96-16.3,12.67-29.56,28.29-29.56Z"></path><g class="cls-4"><rect class="cls-1" x="-.25" width="62.92" height="119.12"></rect></g></g><g><path class="cls-1" d="M239.98,87.28c-.1,3.65-2.24,4.9-8.43,4.9-5.27,0-7.6-.36-8.95-1.42-1.45-1.12-2.17-3.23-2.17-6.35,0-3.72.89-5.86,2.86-6.94,1.25-.69,3-.92,6.68-.92,5.27,0,7.08.43,8.49,2.01,1.15,1.35,1.48,2.73,1.55,6.35h-16.98c.07,1.97.39,3.16,1.12,3.92.92.96,2.57,1.25,7.14,1.25,3.46,0,4.81-.26,5.6-1.15.39-.4.46-.66.56-1.65h2.53ZM237.35,82.84c-.03-3.36-1.51-4.18-7.44-4.18-5.27,0-6.55.79-6.81,4.18h14.25Z"></path><path class="cls-1" d="M244.59,76.75v2.3h.2c.99-1.98,2.67-2.5,7.67-2.5,4.38,0,6.19.4,7.37,1.68.92,1.02,1.25,2.3,1.25,5.17v8.59h-2.4v-7.57c0-2.73-.16-3.65-.86-4.44-.79-.95-2.3-1.32-5.63-1.32-3.75,0-5.66.49-6.71,1.78-.76.89-.89,1.61-.89,4.51v7.04h-2.4v-15.24h2.4Z"></path><path class="cls-1" d="M282.83,87.28c-.1,3.65-2.24,4.9-8.43,4.9-5.27,0-7.6-.36-8.95-1.42-1.45-1.12-2.17-3.23-2.17-6.35,0-3.72.89-5.86,2.86-6.94,1.25-.69,3-.92,6.68-.92,5.27,0,7.08.43,8.49,2.01,1.15,1.35,1.48,2.73,1.55,6.35h-16.98c.07,1.97.39,3.16,1.12,3.92.92.96,2.57,1.25,7.14,1.25,3.46,0,4.81-.26,5.6-1.15.39-.4.46-.66.56-1.65h2.53ZM280.2,82.84c-.03-3.36-1.51-4.18-7.44-4.18-5.27,0-6.55.79-6.81,4.18h14.25Z"></path><path class="cls-1" d="M287.44,76.75v2.04h.17c.39-.72.99-1.25,1.81-1.65.92-.46,2.21-.59,5.1-.59s4.21.26,5.23,1.15c1.02.89,1.55,2.34,1.55,4.31v1.58h-2.47v-1.09c0-3.16-.82-3.85-4.58-3.85-5.79,0-6.81.92-6.81,6.29v7.04h-2.4v-15.24h2.4Z"></path><path class="cls-1" d="M322.69,76.75v11.42c0,4.67-.33,6.35-1.48,7.64-1.38,1.51-3.13,1.88-8.82,1.88-5.1,0-7.21-.56-8.43-2.21-.56-.76-.72-1.32-.72-2.73h2.5c.2,2.24,1.48,2.83,6.38,2.83,4.61,0,6.35-.33,7.18-1.38.69-.86.82-1.61.95-4.74h-.16c-1.32,1.65-2.54,1.97-7.44,1.97-4.28,0-6.29-.36-7.5-1.28-1.58-1.22-2.3-3.13-2.3-6.19,0-3.55,1.05-5.66,3.29-6.65,1.32-.56,3.09-.76,7.01-.76,3.39,0,4.51.17,5.56.76.69.4,1.02.76,1.45,1.38h.13l-.03-1.94h2.44ZM307.09,79.48c-1.12.62-1.68,2.14-1.68,4.54,0,2.67.66,4.11,2.11,4.77.82.36,2.53.53,5.3.53,3.39,0,4.97-.23,5.89-.86,1.12-.79,1.55-2.11,1.55-4.71,0-4.21-1.25-5.1-7.11-5.1-3.32,0-5.07.23-6.06.82Z"></path><path class="cls-1" d="M327.82,70.04v2.86h-2.4v-2.86h2.4ZM327.82,76.75v15.24h-2.4v-15.24h2.4Z"></path><path class="cls-1" d="M330.71,81.33v-.66c0-3.19,1.94-4.11,8.56-4.11,5.17,0,6.94.36,8.23,1.71,1.05,1.05,1.28,2.07,1.28,5.69v8.03h-2.4l.03-1.78h-.1c-1.15,1.65-2.27,1.97-6.91,1.97-5.46,0-6.91-.2-8.03-1.05-.99-.79-1.32-1.71-1.32-3.55,0-2.4.59-3.59,2.17-4.18.92-.36,2.37-.49,5.6-.49,6.25,0,7.31.2,8.36,1.65h.2v-1.65c0-1.58-.17-2.24-.72-2.9-.86-1.05-2.24-1.35-6.22-1.35-5.23,0-6.15.36-6.19,2.47v.2h-2.53ZM333.51,85.57c-.59.39-.89,1.05-.89,2.04,0,1.12.33,1.71,1.18,2.07.69.3,2.34.39,6.09.39,5.1,0,6.32-.49,6.32-2.53s-1.45-2.5-6.81-2.5c-4.05,0-5.2.1-5.89.53Z"></path></g></g></g></svg>